<?xml version="1.0" encoding="utf-8"?>
<!-- Generator: Adobe Illustrator 24.0.1, SVG Export Plug-In . SVG Version: 6.00 Build 0)  -->
<svg version="1.1" xmlns="http://www.w3.org/2000/svg" xmlns:xlink="http://www.w3.org/1999/xlink" x="0px" y="0px"
	 viewBox="0 0 512 512" style="enable-background:new 0 0 512 512;" xml:space="preserve">
<style type="text/css">
	.st0{display:none;}
	.st1{display:inline;fill:#FFFAE3;}
</style>
<g id="background" class="st0">
	<rect class="st1" width="512" height="512"/>
</g>
<g id="vector">
	<g>
		<path d="M255.1,123.4c6.1-0.2,11.8,5,12.1,10.9c0.4,6.2-5.1,12.2-11.4,12.3c-6,0.1-11.5-5.2-11.8-11.3
			C243.8,129.3,249.1,123.5,255.1,123.4z"/>
		<path d="M255.3,148.5c6-0.1,11.1,4.8,11.3,10.8c0.2,6.2-4.4,11.2-10.5,11.5c-6.1,0.3-11-4.4-11.2-10.7
			C244.7,154.1,249.6,148.6,255.3,148.5z"/>
		<path d="M241.9,159.5c0.1,6.2-4.5,11.2-10.5,11.4c-6,0.2-11-4.6-11.2-10.7c-0.2-6,4.6-11.2,10.5-11.4
			C236.6,148.6,241.7,153.5,241.9,159.5z"/>
		<path d="M280.3,148.4c5.9,0,11,5,11.1,11c0.1,6.2-5.1,11.4-11.4,11.2c-5.8-0.2-10.2-4.9-10.3-10.9
			C269.5,153.7,274.5,148.4,280.3,148.4z"/>
		<path d="M266.5,184.6c-0.1,5.7-5.2,10.5-11,10.4c-5.7-0.2-10.5-5.3-10.3-11c0.2-5.6,4.9-9.9,10.6-9.9
			C261.7,174,266.7,178.9,266.5,184.6z"/>
		<path d="M217,184.4c0.1,5.7-4.8,10.7-10.5,10.8c-5.4,0.1-10.4-4.6-10.7-10c-0.3-5.8,4.4-10.8,10.2-11
			C212,174.1,217,178.6,217,184.4z"/>
		<path d="M305,173.7c5.8-0.2,10.9,4.7,10.9,10.3c0,5.5-4.5,10.3-10,10.6c-5.7,0.3-10.8-4.3-11.2-10.1
			C294.5,178.8,299.1,173.9,305,173.7z"/>
		<path d="M320,208.7c0-5.2,4.6-10,9.7-10.2c5.5-0.2,10.2,4.4,10.3,10.1c0.1,5.5-4.1,9.9-9.5,10.1
			C324.8,218.9,320.1,214.3,320,208.7z"/>
		<path d="M266,208.9c0.1,5.6-4.6,10.3-10.1,10.3c-5.2-0.1-9.9-4.6-10.1-9.8c-0.2-5.2,5-10.4,10.3-10.3
			C261.3,199,265.9,203.6,266,208.9z"/>
		<path d="M181.6,199.4c5.3-0.2,10.5,4.9,10.5,10.1c0,5.3-4.4,9.8-9.8,10c-5.6,0.2-10.2-4.3-10.2-10
			C172,204.1,176.3,199.6,181.6,199.4z"/>
		<path d="M256.2,224.2c5.1,0,9.4,4.3,9.5,9.5c0,5.4-4.5,9.9-9.9,9.7c-5-0.1-9.2-4.7-9.1-9.9C246.8,228.4,251.1,224.1,256.2,224.2z"
			/>
		<path d="M247.2,258.3c0.1-4.8,4.5-8.8,9.4-8.7c4.8,0.1,9.1,4.5,8.9,9.2c-0.2,4.8-4.6,8.8-9.4,8.7C251.3,267.3,247,263,247.2,258.3
			z"/>
		<path d="M256.2,274.6c4.7-0.2,8.6,3.7,8.7,8.5c0.1,4.7-3.8,8.7-8.5,8.8c-4.3,0.1-8.1-3.6-8.3-8.2
			C247.9,278.8,251.4,274.8,256.2,274.6z"/>
		<path d="M248.4,308.2c0.2-4.8,4.5-8.9,8.7-8.3c4.6,0.7,7.5,3.4,7.6,8.3c0,4.5-4,8.1-8.6,7.7C251.2,315.4,248.9,312.4,248.4,308.2z
			"/>
		<path d="M256.3,325.1c4.7,0.1,7.5,2.4,7.9,7.1c0.4,4.1-3.5,8.4-7.5,8.1c-4.5-0.3-7.4-3.1-7.5-7.5
			C249,328.2,251.9,325.7,256.3,325.1z"/>
		<path d="M256,364.4c-4.3-0.9-6.6-3.5-6-7.8c0.6-4.2,3.4-6.8,7.7-6.2c4.2,0.6,6.6,3.5,6.1,7.8C263.3,362.5,260.4,364.5,256,364.4z"
			/>
		<path d="M250.3,382.5c0.6-4.3,2.6-7,6.7-7.1c4-0.1,6.6,2.5,6.7,6.5c0.1,4-2.5,6.6-6.5,6.7C253.1,388.7,251.1,386,250.3,382.5z"/>
	</g>
</g>
</svg>
