<svg id="Layer_1" data-name="Layer 1" xmlns="http://www.w3.org/2000/svg" viewBox="0 0 428.17 359.21"><defs><style>.cls-1{fill:#231f20;}</style></defs><path class="cls-1" d="M468.26,76.42l-51.89,8.71c-1.91.32-2.64,2.73-1,3.31l22.58,8.17a3,3,0,0,1,2.07,3l-.57,24c0,1.73,2.46,1.92,3.45.26l26.92-45.21A1.45,1.45,0,0,0,468.26,76.42Z" transform="translate(-41.91 -76.39)"/><path class="cls-1" d="M47,435.46a6.37,6.37,0,0,1-4.89-7.56h0A6.36,6.36,0,0,1,49.62,423h0a6.36,6.36,0,0,1,4.89,7.56h0a6.38,6.38,0,0,1-6.45,5h0A6,6,0,0,1,47,435.46Zm7.92-26.94a6.37,6.37,0,0,1-3.39-8.35h0a6.38,6.38,0,0,1,8.35-3.38h0a6.37,6.37,0,0,1,3.39,8.35h0a6.39,6.39,0,0,1-6.1,3.88h0A6.48,6.48,0,0,1,54.87,408.52Zm267-10a6.37,6.37,0,0,1,5.68-7h0a6.37,6.37,0,0,1,7,5.69h0a6.37,6.37,0,0,1-5.68,7h0a6.68,6.68,0,0,1-.89,0h0A6.36,6.36,0,0,1,321.84,398.52Zm-22.92,4h0a6.38,6.38,0,0,1-4.82-7.61h0a6.37,6.37,0,0,1,7.61-4.82h0a6.36,6.36,0,0,1,4.82,7.61h0a6.37,6.37,0,0,1-6.43,5h0A6.05,6.05,0,0,1,298.92,402.55Zm50.44-9.06a6.37,6.37,0,0,1,3.62-8.25h0a6.37,6.37,0,0,1,8.25,3.61h0a6.37,6.37,0,0,1-3.62,8.25h0a6.23,6.23,0,0,1-2.53.44h0A6.39,6.39,0,0,1,349.36,393.49Zm-78.22-2.73h0a6.37,6.37,0,0,1-1.78-8.83h0a6.38,6.38,0,0,1,8.84-1.78h0A6.39,6.39,0,0,1,280,389h0a6.36,6.36,0,0,1-5.54,2.83h0A6.2,6.2,0,0,1,271.14,390.76ZM66.61,383.05a6.37,6.37,0,0,1-2.42-8.68h0A6.36,6.36,0,0,1,72.86,372h0a6.38,6.38,0,0,1,2.43,8.68h0a6.39,6.39,0,0,1-5.78,3.24h0A6.38,6.38,0,0,1,66.61,383.05Zm308.14-1.38a6.36,6.36,0,0,1,1.69-8.85h0a6.37,6.37,0,0,1,8.85,1.7h0a6.38,6.38,0,0,1-1.69,8.84h0a6.39,6.39,0,0,1-3.8,1.1h0A6.35,6.35,0,0,1,374.75,381.67ZM249.6,369.49a6.36,6.36,0,0,1,1.65-8.85h0a6.38,6.38,0,0,1,8.86,1.66h0a6.37,6.37,0,0,1-1.65,8.85h0a6.33,6.33,0,0,1-3.82,1.11h0A6.35,6.35,0,0,1,249.6,369.49ZM81.08,359a6.38,6.38,0,0,1-1.5-8.89h0a6.38,6.38,0,0,1,8.89-1.5h0A6.36,6.36,0,0,1,90,357.54h0a6.38,6.38,0,0,1-5.42,2.68h0A6.4,6.4,0,0,1,81.08,359Zm315.76,5.44a6.37,6.37,0,0,1-.57-9h0a6.37,6.37,0,0,1,9-.58h0a6.37,6.37,0,0,1,.57,9h0a6.3,6.3,0,0,1-5,2.16h0A6.35,6.35,0,0,1,396.84,364.48ZM237.37,342a6.36,6.36,0,0,1,4.64-7.71h0a6.37,6.37,0,0,1,7.72,4.65h0a6.37,6.37,0,0,1-4.65,7.71h0a6.25,6.25,0,0,1-1.76.19h0A6.38,6.38,0,0,1,237.37,342ZM98,336.69a6.38,6.38,0,0,1-.56-9h0a6.36,6.36,0,0,1,9-.56h0a6.37,6.37,0,0,1,.56,9h0a6.34,6.34,0,0,1-5,2.15h0A6.37,6.37,0,0,1,98,336.69Zm315.63,5.38a6.37,6.37,0,0,1-3.28-8.39h0a6.35,6.35,0,0,1,8.39-3.28h0a6.37,6.37,0,0,1,3.28,8.39h0a6.38,6.38,0,0,1-6.06,3.81h0A6.42,6.42,0,0,1,413.61,342.07ZM117.09,316.2a6.39,6.39,0,0,1,.36-9h0a6.38,6.38,0,0,1,9,.36h0a6.37,6.37,0,0,1-.36,9h0a6.34,6.34,0,0,1-4.54,1.68h0A6.34,6.34,0,0,1,117.09,316.2ZM240.73,319a6.37,6.37,0,0,1-6-6.71h0a6.38,6.38,0,0,1,6.71-6h0a6.36,6.36,0,0,1,6,6.71h0a6.36,6.36,0,0,1-6.58,6h-.13Zm181.58-3.51a6.37,6.37,0,0,1-6.1-6.63h0a6.37,6.37,0,0,1,6.63-6.09h0a6.35,6.35,0,0,1,6.09,6.62h0a6.37,6.37,0,0,1-6.58,6.11h0ZM138.18,297.75a6.36,6.36,0,0,1,1.25-8.91h0a6.37,6.37,0,0,1,8.92,1.24h0A6.37,6.37,0,0,1,147.1,299h0a6.3,6.3,0,0,1-4,1.28h0A6.34,6.34,0,0,1,138.18,297.75Zm106-6.53a6.36,6.36,0,0,1-4.31-7.91h0a6.37,6.37,0,0,1,7.91-4.31h0a6.38,6.38,0,0,1,4.31,7.91h0a6.37,6.37,0,0,1-6.33,4.57h0A6.21,6.21,0,0,1,244.17,291.22ZM161,281.47a6.38,6.38,0,0,1,2.09-8.76h0a6.38,6.38,0,0,1,8.77,2.09h0a6.38,6.38,0,0,1-2.1,8.76h0a6.36,6.36,0,0,1-3.55.94h0A6.36,6.36,0,0,1,161,281.47ZM412.09,284a6.37,6.37,0,0,1,3.59-8.26h0a6.37,6.37,0,0,1,8.26,3.59h0a6.39,6.39,0,0,1-3.59,8.27h0a6.49,6.49,0,0,1-2.55.43h0A6.37,6.37,0,0,1,412.09,284Zm-226.9-16.61a6.37,6.37,0,0,1,2.87-8.54h0a6.38,6.38,0,0,1,8.54,2.87h0a6.37,6.37,0,0,1-2.87,8.54h0a6.4,6.4,0,0,1-3,.66h0A6.36,6.36,0,0,1,185.19,267.41Zm68.28-2.59a6.37,6.37,0,0,1-2.86-8.54h0a6.37,6.37,0,0,1,8.55-2.86h0A6.38,6.38,0,0,1,262,262h0a6.39,6.39,0,0,1-5.93,3.52h0A6.47,6.47,0,0,1,253.47,264.82Zm-42.92-9.27a6.37,6.37,0,0,1,3.58-8.27h0a6.38,6.38,0,0,1,8.27,3.58h0a6.38,6.38,0,0,1-3.58,8.27h0a6.39,6.39,0,0,1-2.57.44h0A6.37,6.37,0,0,1,210.55,255.55ZM398.19,263a6.37,6.37,0,0,1,0-9h0a6.38,6.38,0,0,1,9,0h0a6.37,6.37,0,0,1,0,9h0a6.31,6.31,0,0,1-4.72,1.85h0A6.29,6.29,0,0,1,398.19,263ZM236.83,245.8a6.35,6.35,0,0,1,4.19-8h0a6.37,6.37,0,0,1,8,4.19h0a6.37,6.37,0,0,1-4.2,8h0a6.38,6.38,0,0,1-2.1.29h0A6.37,6.37,0,0,1,236.83,245.8Zm140.28,2.38a6.37,6.37,0,0,1-2.95-8.52h0a6.36,6.36,0,0,1,8.51-2.94h0a6.36,6.36,0,0,1,2.95,8.51h0a6.39,6.39,0,0,1-6,3.58h0A6.3,6.3,0,0,1,377.11,248.18Zm-85.85-15.44a6.37,6.37,0,0,1,5.61-7.05h0a6.36,6.36,0,0,1,7.05,5.6h0a6.37,6.37,0,0,1-5.6,7.05h0a6.22,6.22,0,0,1-1,0h0A6.39,6.39,0,0,1,291.26,232.74Zm60.83,7.13a6.36,6.36,0,0,1-4.95-7.52h0a6.36,6.36,0,0,1,7.52-4.95h0a6.36,6.36,0,0,1,4.95,7.52h0a6.35,6.35,0,0,1-6.45,5.08h0A5.68,5.68,0,0,1,352.09,239.87Zm-32.9-9.38a6.36,6.36,0,0,1,6.5-6.22h0a6.37,6.37,0,0,1,6.24,6.5h0a6.37,6.37,0,0,1-6.51,6.23h-.08A6.38,6.38,0,0,1,319.19,230.49Zm-35.7-12.82a6.37,6.37,0,0,1-.71-9h0a6.37,6.37,0,0,1,9-.7h0a6.37,6.37,0,0,1,.71,9h0a6.38,6.38,0,0,1-5.07,2.23h0A6.32,6.32,0,0,1,283.49,217.67Zm18.72-20.83a6.36,6.36,0,0,1,.08-9h0a6.38,6.38,0,0,1,9,.06h0a6.38,6.38,0,0,1-.08,9h0a6.34,6.34,0,0,1-4.69,1.83h0A6.4,6.4,0,0,1,302.21,196.84Zm20.38-19.23a6.37,6.37,0,0,1,.72-9h0a6.37,6.37,0,0,1,9,.72h0a6.39,6.39,0,0,1-.72,9h0a6.39,6.39,0,0,1-4.36,1.52h0A6.33,6.33,0,0,1,322.59,177.61Zm21.63-17.8a6.38,6.38,0,0,1,1.26-8.92h0a6.37,6.37,0,0,1,8.92,1.25h0a6.39,6.39,0,0,1-1.26,8.93h0a6.34,6.34,0,0,1-4.05,1.28h0A6.38,6.38,0,0,1,344.22,159.81Zm22.62-16.53a6.36,6.36,0,0,1,1.72-8.84h0a6.37,6.37,0,0,1,8.84,1.71h0a6.37,6.37,0,0,1-1.71,8.84h0a6.28,6.28,0,0,1-3.79,1.09h0A6.39,6.39,0,0,1,366.84,143.28Zm23.41-15.4a6.37,6.37,0,0,1,2.1-8.76h0a6.37,6.37,0,0,1,8.76,2.1h0A6.38,6.38,0,0,1,399,130h0a6.36,6.36,0,0,1-3.55.94h0A6.34,6.34,0,0,1,390.25,127.88Zm24-14.38a6.39,6.39,0,0,1,2.44-8.68h0a6.38,6.38,0,0,1,8.67,2.44h0a6.37,6.37,0,0,1-2.44,8.68h0a6.32,6.32,0,0,1-3.33.81h0A6.39,6.39,0,0,1,414.29,113.5Z" transform="translate(-41.91 -76.39)"/><path class="cls-1" d="M267,240.79a6.35,6.35,0,0,1-3.14-8.41h0a6.34,6.34,0,0,1,8.41-3.13h0a6.35,6.35,0,0,1,3.13,8.41h0a6.34,6.34,0,0,1-5.78,3.7h0A6.29,6.29,0,0,1,267,240.79Z" transform="translate(-41.91 -76.39)"/></svg>